<svg width="311" height="70" viewBox="0 0 311 70" fill="none" xmlns="http://www.w3.org/2000/svg">
<g clip-path="url(#clip0)">
<path fill-rule="evenodd" clip-rule="evenodd" d="M34.9875 0C15.7097 0 0 15.7153 0 35C0 54.2847 15.7097 70 34.9875 70C54.2653 70 69.975 54.2847 69.975 35C69.975 15.7153 54.3149 0 34.9875 0ZM34.9875 62.1671C20.0212 62.1671 7.87962 50.0212 7.87962 35.0496C7.87962 20.0779 20.0212 7.93201 34.9875 7.93201C49.9538 7.93201 62.0954 20.0779 62.0954 35.0496C62.0954 50.0212 49.9538 62.1671 34.9875 62.1671ZM33.3521 30.8849L27.7521 25.3325L23.6389 29.4472L19.6743 25.4316L14.0743 30.984L18.0884 34.9996L13.8761 39.2135L19.476 44.8155L23.6389 40.6016L27.9503 44.9146L33.5503 39.3127L29.2388 34.9996L33.3521 30.8849ZM55.9501 30.7369L51.8369 34.8516L56.1484 39.1646L50.5484 44.717L46.2369 40.404L42.0245 44.6179L36.4741 39.0159L40.6865 34.8516L36.6723 30.836L42.2228 25.234L46.2369 29.2496L50.3502 25.1349L55.9501 30.7369Z" fill="#EC1C24"/>
<path fill-rule="evenodd" clip-rule="evenodd" d="M88.2955 23.852C88.2955 20.9927 89.1288 18.7887 90.7955 17.2368C92.4622 15.6849 94.8805 14.9074 98.0503 14.9074C98.7107 14.9074 99.2076 14.9231 99.5378 14.9481V21.0053L98.7516 20.9645C97.5944 20.9645 96.7516 21.2122 96.2296 21.7075C95.7044 22.1997 95.4151 22.9992 95.3616 24.0965H99.5409V30.0313H95.3648V47.096H88.2955V30.0345H85.525V24.0996H88.2955V23.852ZM308.352 26.2378C310.116 27.9527 311 30.5016 311 33.875V47.0928H304.286V34.9033C304.286 33.0724 303.884 31.7055 303.082 30.8057C302.277 29.9059 301.116 29.4545 299.594 29.4545C297.899 29.4545 296.553 29.978 295.547 31.022C294.544 32.066 294.041 33.6179 294.041 35.6777V47.0928H287.327V15.2491H294.041V26.4071C294.931 25.5198 296.006 24.8395 297.27 24.3692C298.531 23.8958 299.909 23.6607 301.402 23.6607C304.27 23.6607 306.588 24.5197 308.352 26.2378ZM256.097 26.2378C257.861 27.9527 258.745 30.5016 258.745 33.875V47.0928H252.031V34.9034C252.031 33.0724 251.628 31.7055 250.826 30.8057C250.021 29.9059 248.861 29.4545 247.339 29.4545C245.644 29.4545 244.298 29.978 243.291 31.022C242.288 32.066 241.785 33.6179 241.785 35.6777V47.0928H235.071V24.0056H241.483V26.7081C242.373 25.7362 243.477 24.9837 244.798 24.4539C246.119 23.9241 247.565 23.6607 249.147 23.6607C252.012 23.6607 254.333 24.5197 256.097 26.2378ZM126.041 24.0087V47.0928H119.629V44.4311C117.966 46.4344 115.554 47.4345 112.396 47.4345C110.217 47.4345 108.242 46.9486 106.478 45.9767C104.714 45.0048 103.33 43.6159 102.324 41.8132C101.318 40.0105 100.818 37.9225 100.818 35.5492C100.818 33.1759 101.318 31.0879 102.324 29.2852C103.327 27.4825 104.714 26.0967 106.478 25.1217C108.242 24.1498 110.217 23.6638 112.396 23.6638C115.352 23.6638 117.661 24.595 119.327 26.4541V24.0087H126.041ZM117.777 40.2049C118.897 39.0449 119.456 37.4961 119.456 35.5492C119.456 33.6054 118.897 32.0535 117.777 30.8935C116.658 29.7335 115.252 29.1566 113.56 29.1566C111.84 29.1566 110.418 29.7366 109.299 30.8935C108.179 32.0535 107.62 33.6054 107.62 35.5492C107.62 37.4961 108.179 39.048 109.299 40.2049C110.418 41.3649 111.837 41.9418 113.56 41.9418C115.249 41.9418 116.658 41.3618 117.777 40.2049ZM134.843 45.9109C132.878 44.8951 131.343 43.4874 130.236 41.6847C129.133 39.882 128.579 37.8378 128.579 35.5492C128.579 33.2605 129.133 31.2164 130.236 29.4137C131.34 27.611 132.875 26.2033 134.843 25.1875C136.809 24.1717 139.026 23.6638 141.494 23.6638C143.932 23.6638 146.064 24.1717 147.888 25.1875C149.708 26.2033 151.035 27.6549 151.869 29.5422L146.661 32.3325C145.457 30.2163 143.718 29.1566 141.454 29.1566C139.702 29.1566 138.255 29.7304 137.108 30.8715C135.96 32.0159 135.387 33.574 135.387 35.5492C135.387 37.5243 135.96 39.0825 137.108 40.2268C138.255 41.3712 139.705 41.9418 141.454 41.9418C143.749 41.9418 145.485 40.8821 146.661 38.7659L151.869 41.5969C151.035 43.4278 149.708 44.8575 147.888 45.8889C146.064 46.9172 143.935 47.4345 141.494 47.4345C139.023 47.4345 136.806 46.9266 134.843 45.9109ZM159.482 37.4366H177.001C177.086 36.3204 177.13 35.7185 177.133 35.637C177.133 33.2323 176.608 31.1255 175.561 29.3071C174.511 27.4887 173.07 26.0936 171.234 25.1217C169.397 24.1498 167.347 23.6638 165.08 23.6638C162.756 23.6638 160.652 24.1717 158.774 25.1875C156.894 26.2033 155.416 27.6204 154.34 29.4356C153.265 31.2509 152.727 33.2887 152.727 35.5492C152.727 37.8378 153.271 39.882 154.362 41.6847C155.454 43.4874 157.001 44.8951 159.01 45.9109C161.02 46.9266 163.331 47.4345 165.941 47.4345C170.13 47.4345 173.316 46.1899 175.495 43.7006L171.922 39.8381C171.117 40.6125 170.249 41.1768 169.319 41.5342C168.385 41.8916 167.315 42.0703 166.111 42.0703C164.359 42.0703 162.897 41.6565 161.721 40.8256C160.542 39.998 159.797 38.8662 159.482 37.4366ZM159.397 33.5302C159.627 32.0441 160.259 30.8715 161.29 30.0125C162.325 29.1535 163.602 28.724 165.124 28.724C166.614 28.724 167.878 29.1598 168.91 30.0313C169.941 30.906 170.573 32.0723 170.803 33.5302H159.397ZM199.382 25.1405C201.146 26.1281 202.53 27.517 203.536 29.304C204.539 31.091 205.042 33.1728 205.042 35.5461C205.042 37.9225 204.539 40.0011 203.536 41.7913C202.533 43.5783 201.146 44.9672 199.382 45.9548C197.618 46.9423 195.659 47.4346 193.508 47.4346C190.552 47.4346 188.228 46.5066 186.536 44.6443V55.4167H179.822V24.0056H186.234V26.6673C187.898 24.664 190.322 23.6639 193.508 23.6639C195.659 23.6607 197.615 24.1561 199.382 25.1405ZM196.583 40.2049C197.687 39.0449 198.241 37.4961 198.241 35.5492C198.241 33.6054 197.687 32.0535 196.583 30.8935C195.479 29.7335 194.064 29.1566 192.344 29.1566C190.624 29.1566 189.209 29.7366 188.105 30.8935C187.001 32.0535 186.448 33.6054 186.448 35.5492C186.448 37.4961 187.001 39.048 188.105 40.2049C189.209 41.3649 190.624 41.9418 192.344 41.9418C194.064 41.9418 195.479 41.3618 196.583 40.2049ZM231.555 47.0928V24.0056H224.835V35.4175C224.835 37.4773 224.348 39.0292 223.373 40.0732C222.395 41.1204 221.106 41.6408 219.499 41.6408C216.37 41.6408 214.807 39.7817 214.807 36.0634V24.0056H208.093V37.0509C208.093 40.4808 208.983 43.0736 210.763 44.8167C212.543 46.563 214.955 47.4346 217.995 47.4346C219.429 47.4346 220.766 47.1712 221.999 46.6414C223.231 46.1147 224.294 45.3497 225.184 44.3464V47.0928H231.555ZM263.285 41.6847C264.392 43.4874 265.927 44.8951 267.892 45.9109C269.858 46.9266 272.075 47.4345 274.544 47.4345C276.984 47.4345 279.113 46.9172 280.937 45.8889C282.757 44.8575 284.085 43.4278 284.918 41.5969L279.71 38.7659C278.534 40.8821 276.798 41.9418 274.503 41.9418C272.754 41.9418 271.304 41.3712 270.157 40.2268C269.009 39.0825 268.437 37.5243 268.437 35.5492C268.437 33.574 269.009 32.0159 270.157 30.8715C271.304 29.7304 272.751 29.1566 274.503 29.1566C276.767 29.1566 278.506 30.2163 279.71 32.3325L284.918 29.5422C284.085 27.6549 282.757 26.2033 280.937 25.1875C279.113 24.1717 276.981 23.6638 274.544 23.6638C272.075 23.6638 269.858 24.1717 267.892 25.1875C265.924 26.2033 264.389 27.611 263.285 29.4137C262.182 31.2164 261.628 33.2605 261.628 35.5492C261.628 37.8378 262.182 39.882 263.285 41.6847Z" fill="white"/>
</g>
<defs>
<clipPath id="clip0">
<path d="M0 0H311V70H0V0Z" fill="white"/>
</clipPath>
</defs>
</svg>
